<svg id="Layer_1" data-name="Layer 1" xmlns="http://www.w3.org/2000/svg" viewBox="0 0 64.29 66.19"><title>noun_18534</title><path d="M82.14,49A32.14,32.14,0,1,0,23.6,67.38s2.33,9.32-5.74,13.82c0,0,22.42,5,40.85-1.21A32.16,32.16,0,0,0,75.19,69l0.26-.33c0.48-.63,1-1.27,1.39-1.93l0,0h0A32,32,0,0,0,82.14,49ZM54.78,72.37a4.92,4.92,0,1,1,4.78-4.91A4.85,4.85,0,0,1,54.78,72.37ZM71.93,57.15s-4.28,4.89-7.61,0c-3.67-5.4,7.24-5.59-3.27-23,0,0-1.74-3.37-.06-4.43h0s4-4.36,10.3,7.76h0A21.3,21.3,0,0,1,71.93,57.15Z" transform="translate(-17.86 -16.9)"/></svg>